<svg width="173" height="168" viewBox="0 0 173 168" fill="none" xmlns="http://www.w3.org/2000/svg">
<path d="M65.6619 11.8609C65.6011 9.42428 68.1498 7.68244 70.7561 8.09229C73.3625 8.50213 78.2005 10.1351 78.2005 10.1351C78.2005 10.1351 79.1291 5.70367 80.4163 3.15496C81.2872 1.42913 82.7504 -0.357531 84.7388 0.0619187C86.1156 0.353292 86.724 1.59883 86.9129 2.93082C87.3676 6.13913 83.0322 11.7072 83.0322 11.7072C83.0322 11.7072 90.054 13.2602 92.4042 15.0884C93.3615 15.8345 93.9891 16.8399 93.8098 18.0022C93.4896 20.0642 91.4084 21.14 89.1094 20.7014C86.8073 20.2627 84.2425 18.6778 82.5327 16.952C82.9554 18.8091 80.9318 28.7221 76.7085 27.5919C72.4851 26.4584 76.0649 17.5987 76.7725 15.652C74.608 15.7801 71.9568 16.3564 69.85 15.8505C67.7431 15.3478 65.7227 14.2944 65.6619 11.8609ZM67.0867 57.6065C63.4782 58.0452 59.764 59.1786 56.6037 60.9749C54.8811 57.4752 55.8865 45.5353 49.0664 47.9175C42.2432 50.303 49.7548 63.245 49.7548 63.245C49.7548 63.245 43.255 66.6775 41.7437 68.541C40.2324 70.4077 40.0435 73.5616 41.9902 74.964C43.0341 75.7132 44.4077 75.7933 45.6884 75.7036C49.7548 75.4123 53.6964 73.5968 56.5589 70.6927C57.2665 73.9586 58.781 77.0452 60.9327 79.5972C61.7684 80.5929 62.9051 81.5823 64.1922 81.403C66.0077 81.1501 66.6865 78.8575 66.6065 77.026C66.4368 73.0717 64.5829 69.2134 61.6019 66.6102C64.4996 65.7329 67.1476 64.0519 69.1744 61.801C70.0197 60.8628 70.7785 59.4572 70.0741 58.407C69.469 57.504 68.1658 57.472 67.0835 57.6065H67.0867ZM124.055 65.1214C121.128 62.9665 118.352 62.4318 114.824 61.5672C115.967 57.8402 123.536 51.4845 116.94 48.5355C110.341 45.5866 108.782 61.5064 108.782 61.5064C108.782 61.5064 100.499 55.3652 98.1196 55.6854C95.7438 56.0055 93.4416 58.1732 93.8995 60.5298C94.1428 61.7882 95.0874 62.7936 96.08 63.6037C99.2402 66.1844 106.966 66.2516 106.966 66.2516C106.966 66.2516 104.69 73.568 104.504 76.9012C104.434 78.1979 104.581 79.6996 105.641 80.4521C107.133 81.5151 109.198 80.3144 110.396 78.9248C112.986 75.931 114.28 71.8518 113.895 67.9134C116.604 69.2614 119.684 69.857 122.701 69.6072C123.959 69.5048 125.473 69.0053 125.682 67.7565C125.861 66.6839 124.932 65.7681 124.055 65.1214ZM171.353 101.188C168.427 99.0327 165.651 98.498 162.122 97.6335C163.265 93.9065 170.835 87.5507 164.236 84.6017C157.64 81.6528 156.08 97.5726 156.08 97.5726C156.08 97.5726 147.794 91.4314 145.418 91.7516C143.039 92.0718 140.737 94.2394 141.195 96.5961C141.441 97.8544 142.386 98.8598 143.378 99.6699C146.536 102.251 154.265 102.318 154.265 102.318C154.265 102.318 151.988 109.634 151.803 112.967C151.729 114.264 151.88 115.766 152.936 116.518C154.431 117.581 156.497 116.381 157.694 114.991C160.281 111.997 161.578 107.918 161.191 103.98C163.899 105.328 166.98 105.92 169.996 105.673C171.257 105.571 172.772 105.071 172.977 103.823C173.159 102.75 172.231 101.834 171.353 101.188ZM22.6219 99.2792C39.4159 84.3008 19.6378 88.0214 16.66 98.6229C3.92603 83.9069 -9.80372 96.8106 9.85275 103.848C-3.32948 117.482 15.8179 117.351 20.6432 105.462C37.3475 116.022 34.12 101.629 22.6219 99.2792ZM87.9663 113.32C93.9443 94.7934 78.3318 91.8765 82.5039 112.346C64.0225 108.129 68.9951 120.818 81.6586 118.785C81.2904 138.554 93.7746 129.15 89.8266 118.09C113.319 120.309 98.571 110.374 87.9663 113.32ZM53.5363 147.41C71.2812 127.338 50.7538 126.678 47.3854 144.99C28.1196 128.913 22.0328 154.243 44.5005 151.429C27.2615 172.958 43.3574 171.29 51.2181 155.825C70.151 171.591 72.2034 153.02 53.5363 147.41ZM151.537 29.6859C150.73 53.2615 160.739 44.4563 158.27 29.6571C178.945 32.0009 171.001 17.7268 155.61 22.5361C157.486 -0.235859 143.324 8.99843 150.25 23.7112C129.197 21.3033 137.814 42.327 151.537 29.6859Z" fill="#EF6487"/>
</svg>
