<svg width="180" height="186" viewBox="0 0 180 186" fill="none" xmlns="http://www.w3.org/2000/svg">
<path d="M85.3548 139.226C90.1901 148.5 94.3997 157.479 99.4821 165.907C102.745 171.327 110.439 172.776 115.313 169.954C120.931 166.68 124.724 161.822 123.386 155.283C122 148.488 119.141 142 116.982 135.362C115.483 130.776 111.533 125.475 115.105 121.441C120.014 115.897 126.235 120.633 131.658 122.313C138.309 124.398 144.655 127.585 151.32 129.635C158.67 131.905 165.665 128.297 168.524 121.541C171.139 115.306 168.45 107.225 161.529 103.804C150.877 98.5027 139.855 93.9778 129.216 89.2413C130.75 81.1473 136.888 79.7491 141.797 76.9528C152.215 71.0137 162.842 65.3857 172.955 58.956C179.825 54.5915 181.592 47.1453 178.599 40.6931C175.679 34.4238 168.437 31.6402 160.791 34.645C154.3 37.1977 148.153 40.5937 141.906 43.6979C135.659 46.8021 129.524 50.1853 123.142 53.0202C121.717 53.6583 119.032 53.0202 117.768 51.9523C116.651 51.0191 115.878 48.3574 116.378 46.9978C119.853 37.6498 123.951 28.536 127.352 19.14C130.037 11.7066 126.983 4.50724 120.614 1.47678C114.01 -1.66271 106.291 0.200462 102.476 7.09515C96.3409 18.2068 91.0147 29.7642 85.5634 40.6546C77.6992 40.164 77.1088 34.4238 74.9238 30.2549C71.2307 23.1999 68.0767 15.8177 63.989 8.98397C60.6393 3.37843 53.436 1.53771 48.3569 4.07752C42.2703 7.15608 39.0906 12.6879 40.7462 18.8322C43.8392 30.3383 48.4179 41.4531 52.159 52.7861C54.1131 58.6738 50.5516 62.894 44.6125 61.669C37.7783 60.2708 31.0884 58.1479 24.2542 56.6631C20.3879 55.8294 16.3387 54.9828 12.4852 55.3387C5.86912 55.964 1.67232 60.1329 0.286223 66.6236C-0.904154 72.1169 1.74612 76.5583 5.86912 79.6144C8.97501 81.9073 12.9504 83.1323 16.6467 84.569C23.9333 87.4038 32.266 87.5129 38.6991 93.1184C36.0103 103.887 24.9889 103.717 18.1066 108.771C8.76645 115.601 5.16003 121.415 7.74934 128.076C10.9996 136.382 19.2456 138.614 30.5494 134.628C36.8446 132.418 41.9269 126.396 49.6339 128.31C54.5911 135.695 48.2831 141.471 46.9066 147.888C45.2382 155.664 42.6264 163.293 41.6542 171.144C40.8713 177.522 44.0606 183.115 50.4906 185.251C56.9847 187.409 62.7505 184.786 65.696 178.92C69.7099 170.923 72.6553 162.412 75.9794 154.08C77.7858 149.555 77.8564 144.184 85.3676 139.217" fill="#237BFB"/>
</svg>
