<svg width="41" height="42" viewBox="0 0 41 42" fill="none" xmlns="http://www.w3.org/2000/svg">
<g clip-path="url(#clip0_102_336)">
<path fill-rule="evenodd" clip-rule="evenodd" d="M4.36436 9.14481C4.55754 8.84708 4.93316 8.10098 5.4483 7.55575C8.71084 4.10143 13.9839 3.57055 16.8994 7.30466C18.4019 9.2309 18.5664 11.1464 18.5664 14.0447C18.5664 19.601 18.4305 25.3367 18.6237 30.8679C19.0458 42.9204 32.5539 44.5633 37.8984 38.7809C41.3255 35.0719 40.9606 30.9182 40.9499 24.9708C40.9428 22.155 40.9463 19.3392 40.9535 16.5234C40.9642 11.132 41.762 6.4617 36.7 3.9149C33.2228 2.16443 27.7853 2.83879 25.7998 5.93799C25.5888 6.6016 26.2005 8.95111 26.2506 9.15557C26.9911 9.22372 27.4669 7.66695 30.4289 7.17552C33.1906 6.71997 35.3406 7.79967 35.9309 9.99494C36.2886 11.3221 36.1384 16.5485 36.1455 18.2738C36.1563 21.0645 36.1527 23.8589 36.142 26.6496C36.1348 29.2753 36.4067 32.1019 35.1117 34.0963C34.0528 35.7248 32.1174 36.8475 29.2878 36.7363C26.6906 36.6359 25.0486 35.2118 24.3152 33.239C23.564 31.2159 23.7965 27.7759 23.7894 25.412C23.7822 22.5962 23.7965 19.7804 23.7965 16.9646C23.7965 11.8745 24.2723 7.04639 20.4982 3.34456C17.6292 0.528734 12.789 -0.949127 7.54105 0.693738C5.46261 1.34299 3.41636 2.82803 2.43259 4.02251C1.69208 4.92286 1.28426 5.35331 0.704733 6.51192C0.550907 6.81682 0.629608 6.79171 0.450741 7.16117C-0.511566 9.15557 3.17668 10.9957 4.37152 9.15198L4.36436 9.14481Z" fill="white"/>
<path fill-rule="evenodd" clip-rule="evenodd" d="M0.908632 10.5761C-0.264738 10.9384 0.0357592 12.1687 0.0321818 13.9407L0.0286045 35.4271C0.0286045 36.1302 0.0286045 36.8368 0.0286045 37.5399C0.0286045 38.4653 -0.0536746 38.7272 0.525856 39.2186C1.28783 39.8643 2.58283 39.8643 3.61311 39.4661C4.96535 38.9424 4.63265 37.8591 4.63265 36.2557V12.6566C4.6255 11.6701 4.47883 11.089 3.978 10.7447C3.40204 10.3465 2.37892 10.2855 0.908632 10.5725V10.5761Z" fill="white"/>
</g>
<defs>
<clipPath id="clip0_102_336">
<rect width="41" height="42" fill="white"/>
</clipPath>
</defs>
</svg>
