<svg width="108" height="93" viewBox="0 0 108 93" fill="none" xmlns="http://www.w3.org/2000/svg">
<mask id="mask0_167_38" style="mask-type:luminance" maskUnits="userSpaceOnUse" x="0" y="-56" width="159" height="149">
<path d="M0 -56H159V92.5395H0V-56Z" fill="white"/>
</mask>
<g mask="url(#mask0_167_38)">
<path d="M145.928 -55.557C145.348 -55.3301 144.239 -54.8244 143.492 -54.3761C142.745 -53.925 141.747 -53.1103 141.248 -52.5199C140.779 -51.9567 140.058 -50.8605 139.7 -50.1005C139.311 -49.3405 138.896 -48.1596 138.785 -47.4871C138.675 -46.7818 138.313 -45.5188 138.008 -44.6167C137.676 -43.7173 137.401 -42.6785 137.401 -42.3121C137.401 -41.9185 137.207 -41.328 136.956 -40.9918C136.708 -40.6528 136.209 -39.4991 135.877 -38.433C135.572 -37.3914 135.157 -36.4346 134.99 -36.3499C134.825 -36.2679 134.52 -35.6774 134.326 -35.0569C134.159 -34.4117 133.69 -33.4822 133.331 -32.9765C132.942 -32.4708 132.387 -31.5413 132.112 -30.9508C131.807 -30.3603 131.197 -29.4336 130.755 -28.8704C130.339 -28.31 129.147 -26.9869 128.152 -25.8907C127.154 -24.8218 125.716 -23.4713 124.939 -22.8809C124.192 -22.2904 123.029 -21.5331 122.363 -21.1395C121.699 -20.7732 120.537 -20.2674 119.789 -20.0132C119.042 -19.7617 118.017 -19.5348 117.518 -19.5348C116.992 -19.5348 116.051 -19.6769 115.387 -19.8738C114.721 -20.0433 113.615 -20.4916 112.949 -20.8579C112.285 -21.1941 110.845 -22.2357 109.766 -23.1078C108.657 -24.0071 107.106 -25.4396 106.248 -26.3417C105.417 -27.2111 104.198 -28.4768 103.535 -29.152C102.841 -29.7999 102.205 -30.4177 102.094 -30.5571C101.983 -30.6993 101.263 -31.4292 100.543 -32.1892C99.7958 -32.9492 98.2717 -34.4664 97.1091 -35.5353C95.9465 -36.6041 94.2309 -38.1788 93.2598 -39.0235C92.2914 -39.8381 90.9346 -40.8223 90.2144 -41.1886C89.5238 -41.5522 88.3046 -42.3121 87.5574 -42.9026C86.8102 -43.4658 85.5909 -44.1683 84.8167 -44.4499C84.0668 -44.7315 82.7666 -45.3493 81.9358 -45.8277C81.105 -46.276 79.6106 -46.8665 78.5856 -47.1208C77.5875 -47.3723 76.147 -47.796 75.3998 -48.0776C74.6526 -48.3291 73.4334 -48.5532 72.6592 -48.5532C71.912 -48.5532 70.7494 -48.7501 70.0831 -49.0043C69.2523 -49.3132 67.4261 -49.4554 64.2404 -49.4554C61.4728 -49.4827 59.2581 -49.3405 58.7591 -49.1437C58.314 -48.9469 56.9032 -48.668 55.657 -48.5259C54.1626 -48.3865 52.8597 -48.0202 51.9183 -47.4871C51.1145 -47.0634 50.2297 -46.6998 49.9518 -46.6998C49.647 -46.6998 48.7056 -46.3608 47.8208 -45.9398C46.9334 -45.5188 45.6332 -44.562 44.913 -43.8594C44.1927 -43.1268 43.0301 -42.1153 42.2829 -41.6096C41.5627 -41.1038 40.6752 -40.2865 40.3434 -39.7807C39.9847 -39.3023 39.2645 -38.094 38.7654 -37.1372C38.2664 -36.1531 37.4086 -34.5238 36.8826 -33.4822C36.1354 -32.0498 35.8036 -30.8688 35.5257 -28.731C35.3315 -27.1564 35.167 -24.8218 35.167 -23.5561C35.167 -22.2904 35.3315 -19.9284 35.5257 -18.2991C35.7469 -16.4429 36.1354 -14.8109 36.6047 -13.8268C37.0201 -12.9848 37.4356 -11.8038 37.5462 -11.2133C37.6298 -10.6228 38.1288 -9.44188 38.6009 -8.56982C39.0972 -7.72511 39.928 -6.12314 40.454 -5.02692C40.9531 -3.9307 41.8945 -2.46816 42.5311 -1.79293C43.1677 -1.1177 43.9715 -0.0788841 44.3303 0.511597C44.6648 1.13215 45.4659 2.05888 46.1026 2.62203C46.7688 3.21252 48.1257 4.44816 49.1507 5.40496C50.173 6.36176 51.7538 7.79423 52.6385 8.58154C53.553 9.36886 54.8262 10.3257 55.4898 10.7193C56.156 11.113 57.1514 11.8456 57.7071 12.3213C58.2331 12.7997 59.5063 13.587 60.5017 14.0927C61.4997 14.6285 62.4142 15.1616 62.4978 15.3311C62.5787 15.5006 63.4096 16.0337 64.3806 16.5121C65.349 16.9631 66.6222 17.7204 67.2049 18.1988C67.7849 18.6498 68.9475 19.2677 69.808 19.5766C70.6658 19.8855 71.5505 20.2791 71.7717 20.476C72.0226 20.6728 72.7968 21.1239 73.517 21.4902C74.2103 21.8264 74.9575 22.1353 75.1786 22.1353C75.3729 22.108 76.2307 22.4743 77.0885 22.9226C77.9193 23.3737 79.2761 23.9068 80.1069 24.1337C80.9378 24.3305 82.184 24.8062 82.8503 25.1452C83.5138 25.4814 84.6225 25.8751 85.2861 26.0172C85.9497 26.1293 87.1959 26.5776 88.0267 26.9713C88.8575 27.3649 89.8556 27.6766 90.2144 27.6766C90.6028 27.6766 91.35 27.9554 91.903 28.2944C92.429 28.6033 93.6483 29.0817 94.5627 29.3332C95.4771 29.5875 96.9715 30.0932 97.886 30.4869C98.8274 30.8805 100.654 31.7252 102.01 32.4005C103.34 33.0456 105.14 34.0298 106.027 34.5656C106.885 35.126 108.325 36.0828 109.21 36.7006C110.097 37.3212 111.592 38.6415 112.533 39.6257C113.502 40.6098 114.748 41.9876 115.358 42.6628C115.967 43.3381 117.076 45.1642 117.823 46.7388C118.57 48.3135 119.18 49.8607 119.18 50.1423C119.18 50.4512 119.374 51.3233 119.649 52.0833C120.038 53.1221 120.094 54.1062 119.984 56.244C119.873 57.7612 119.568 59.7021 119.29 60.5742C118.986 61.4189 118.403 62.7393 117.988 63.4993C117.545 64.2592 116.356 65.7491 115.304 66.818C114.252 67.8568 112.674 69.1225 111.813 69.5736C110.928 70.0493 109.515 70.6972 108.684 71.0061C107.853 71.3451 106.221 71.6813 105.029 71.7387C103.062 71.8781 102.841 71.8207 101.625 70.9213C100.764 70.3035 100.128 69.4889 99.7122 68.5047C99.3804 67.7174 99.1026 66.7606 99.1026 66.4244C99.1322 66.0854 98.911 65.186 98.6602 64.426C98.412 63.6688 98.1908 62.4304 98.1908 61.7278C98.1908 60.9952 97.9399 59.6748 97.6351 58.7754C97.3033 57.9033 96.9985 56.6103 96.9149 55.9351C96.834 55.2598 96.3619 53.7973 95.8359 52.7011C95.3369 51.5775 94.7003 50.0576 94.4521 49.2976C94.1743 48.5404 93.3165 47.1051 92.5126 46.1483C91.7115 45.1642 90.6568 43.7317 90.1604 42.9171C89.6344 42.0997 88.5824 41.0308 87.7219 40.4403C86.8911 39.9073 85.5909 38.9231 84.814 38.3053C84.0668 37.6847 82.8503 36.8701 82.1004 36.5338C81.3262 36.1949 79.9694 35.8285 79.0549 35.6891C78.1432 35.577 76.7567 35.2381 76.0095 34.9592C75.0141 34.5656 74.0997 34.4808 72.5216 34.5929C71.359 34.6777 69.1714 34.9018 67.6473 35.0713C65.7375 35.2955 64.4616 35.6317 63.4096 36.1949C62.5518 36.6459 60.9171 37.518 59.7545 38.1085C58.5919 38.699 56.8196 39.8799 55.8782 40.752C54.9098 41.6213 52.0019 44.4343 49.4555 46.9931C46.8524 49.5518 43.9149 52.168 42.8359 52.8405C41.2579 53.8246 40.6213 54.0515 39.3481 54.0789C38.1288 54.0789 37.5462 53.882 36.4941 53.1521C35.7739 52.6437 34.9161 51.8017 34.6113 51.2959C34.3065 50.7902 34.0583 49.9181 34.0583 49.3823C34.0583 48.8219 34.3631 47.4441 34.7219 46.2905C35.0834 45.1369 35.6094 43.7044 35.9142 43.1139C36.219 42.5234 36.6614 41.285 36.8826 40.3583C37.1307 39.4015 37.6298 38.0237 38.0182 37.2637C38.377 36.5038 38.7654 35.1834 38.849 34.3113C38.9327 33.4666 39.1808 32.231 39.402 31.5557C39.7068 30.711 39.8741 28.6607 39.9011 25.0604C39.9577 22.1927 39.8174 18.7045 39.6232 17.3568C39.375 15.7521 38.876 14.0927 38.2124 12.7149C37.6298 11.534 36.8556 9.79258 36.4672 8.89319C36.0518 7.96372 35.167 6.61327 34.4468 5.88336C33.7265 5.15346 32.7851 3.97249 32.3131 3.26719C31.8437 2.56462 31.0668 1.69257 30.5705 1.29891C30.0715 0.935326 29.184 0.372177 28.604 0.0632668C27.9944 -0.245644 26.9154 -1.03296 26.1655 -1.68085C25.4183 -2.35608 24.1181 -3.11332 23.2576 -3.39489C22.4295 -3.67646 21.0727 -4.29428 20.2419 -4.77269C19.3274 -5.27842 18.0245 -5.72949 17.0292 -5.84157C16.1147 -5.92632 14.6203 -6.29263 13.7059 -6.62888C12.403 -7.10728 11.4912 -7.21936 9.74597 -7.13462C8.1113 -7.04987 7.00534 -6.77103 5.78608 -6.20789C4.87163 -5.75682 3.5148 -4.71801 2.7676 -3.90063C2.0204 -3.08598 1.13293 -1.79293 0.828118 -1.00562C0.469354 -0.218304 0.164538 1.32898 0.080917 2.6767C-7.64057e-06 4.50557 0.0809171 5.37762 0.57995 6.69801C0.941411 7.65481 1.82618 9.11736 2.65701 10.0742C3.6254 11.1704 4.73406 12.0424 5.95332 12.6028C7.05929 13.1387 8.27855 13.4749 9.05272 13.4749C9.77295 13.4749 10.798 13.6717 11.351 13.926C11.877 14.1501 13.0693 14.6859 13.9837 15.0796C14.8955 15.4733 16.1147 16.2305 16.6974 16.7362C17.2773 17.2447 18.0542 18.1441 18.413 18.7346C18.7717 19.3251 19.2438 20.3092 19.438 20.8997C19.6322 21.4902 19.7698 22.7559 19.7968 23.6826C19.7968 24.6094 19.6592 26.1293 19.492 27.056C19.3544 28.0128 19.0496 29.3906 18.8553 30.1506C18.6611 30.9078 18.1648 32.3157 17.7764 33.2424C17.3879 34.1719 16.9725 35.2955 16.8619 35.7165C16.7513 36.1402 16.3359 37.179 15.9475 38.0237C15.5617 38.8657 15.0897 40.413 14.9251 41.4245C14.7849 42.4387 14.4261 44.0406 14.1752 44.9674C13.8165 46.2905 13.7598 47.641 13.8731 50.987C14.0377 55.2024 14.0943 55.3719 15.2003 57.7913C15.8369 59.139 16.5301 60.7984 16.7513 61.4736C16.9995 62.2609 17.9436 63.5539 19.1871 64.8771C20.3228 66.0854 21.6257 67.5206 22.1247 68.1384C22.621 68.7289 24.1181 69.7978 25.4183 70.5577C26.7482 71.2876 28.5204 72.2718 29.3512 72.7775C30.2657 73.3133 31.5389 73.7343 32.5342 73.8464C33.4757 73.9585 34.7516 74.2674 35.4421 74.4943C36.2999 74.8306 37.4086 74.9153 39.375 74.8306C40.8991 74.7458 43.1407 74.5216 44.387 74.3248C45.965 74.1006 47.4594 73.6222 49.121 72.7775C50.4509 72.1023 52.0289 71.3724 52.6116 71.1182C53.1915 70.894 54.4674 69.9946 55.4088 69.0952C56.3772 68.2231 57.2917 67.5206 57.4562 67.5206C57.6504 67.5206 58.8131 66.5064 60.1159 65.2707C61.3891 64.0323 62.9672 62.4878 63.6038 61.7825C64.2404 61.1073 64.85 60.4621 64.9876 60.35C65.1278 60.2079 65.902 59.4506 66.7328 58.6332C67.5906 57.8186 68.8099 56.7771 69.4735 56.3287C70.1398 55.8777 71.2457 55.3993 71.912 55.2872C72.937 55.1204 73.2688 55.2024 74.043 55.8503C74.542 56.2713 75.3162 57.2281 75.7316 57.958C76.1767 58.718 76.8133 60.2379 77.1451 61.3342C77.5039 62.4304 78.0029 64.3713 78.2538 65.6644C78.5019 66.9301 78.8067 68.6168 78.8904 69.4314C78.9713 70.2461 79.3328 71.4845 79.6645 72.2144C79.9963 72.947 80.2742 73.9312 80.2742 74.4642C80.2742 74.97 80.6896 76.2357 81.1886 77.3046C81.6877 78.3734 82.2406 79.3002 82.4052 79.3849C82.5724 79.4697 83.0148 80.2843 83.4032 81.1564C83.7917 82.0558 84.6495 83.3789 85.3131 84.1389C85.9497 84.8688 86.9747 85.7682 87.5574 86.1071C88.1373 86.4707 89.219 87.2881 89.9096 87.9333C90.6298 88.5812 91.6009 89.3111 92.0433 89.538C92.5126 89.7895 93.5107 90.1284 94.2579 90.3253C95.0051 90.5221 96.4455 91.0552 97.4436 91.5063C99.1026 92.2361 99.6852 92.3209 103.893 92.4056C107.578 92.4904 108.795 92.4056 109.82 92.012C110.54 91.7578 111.87 91.4215 112.784 91.2793C113.726 91.1126 115.358 90.6041 116.439 90.0984C117.518 89.5927 119.042 88.9475 119.789 88.6933C120.537 88.439 121.783 87.7365 122.53 87.1733C123.277 86.5828 124.47 85.8256 125.187 85.4593C125.88 85.0929 127.82 83.4636 129.425 81.8316C131.06 80.2296 132.802 78.234 133.301 77.4166C133.8 76.602 134.688 75.3089 135.214 74.5763C135.767 73.8191 136.43 72.5807 136.708 71.8207C136.956 71.0635 137.566 69.6857 138.065 68.7289C138.534 67.8022 139.006 66.2822 139.117 65.3555C139.201 64.426 139.476 63.1056 139.7 62.4031C139.921 61.7278 140.196 59.0843 140.306 56.5529C140.447 52.9252 140.39 51.6322 140.058 50.536C139.81 49.776 139.532 48.3709 139.449 47.4441C139.365 46.5147 139.033 45.0521 138.675 44.2101C138.343 43.3654 137.871 41.9029 137.593 40.9488C137.345 40.0193 136.735 38.6415 136.209 37.8816C135.71 37.1243 135.295 36.3069 135.295 36.1101C135.295 35.886 135.019 35.1561 134.688 34.4808C134.353 33.8056 133.552 32.652 132.886 31.9221C132.249 31.2195 131.502 30.2053 131.254 29.6995C130.976 29.1938 129.314 27.3649 127.569 25.6782C125.797 23.9915 123.555 21.8538 122.53 20.9844C121.532 20.0823 120.121 19.0708 119.401 18.7045C118.681 18.3409 117.766 17.7204 117.351 17.3267C116.936 16.9331 115.773 16.2305 114.778 15.7822C113.78 15.3038 112.479 14.6012 111.87 14.2075C111.287 13.8412 110.208 13.3054 109.461 13.0266C108.684 12.7723 107.467 12.2393 106.718 11.8155C105.97 11.4219 104.864 11.0009 104.282 10.8615C103.702 10.7467 102.399 10.2409 101.401 9.73518C100.405 9.25677 99.1862 8.83578 98.7438 8.86311C98.2717 8.86311 97.4436 8.58154 96.9149 8.27264C96.3619 7.93639 95.2263 7.48532 94.3955 7.28849C93.5646 7.06433 92.2078 6.58593 91.35 6.19227C90.5192 5.79861 89.4672 5.46237 88.9978 5.46237C88.5527 5.46237 88.1103 5.32021 88.0267 5.15346C87.9431 4.98397 87.2256 4.61765 86.4217 4.36615C85.6179 4.08457 83.8726 3.382 82.5454 2.79152C81.2156 2.20104 79.9154 1.58048 79.6645 1.41373C79.4164 1.24424 78.3913 0.708427 77.3933 0.17535C76.3709 -0.330387 74.7093 -1.25985 73.6842 -1.87767C72.6592 -2.52283 71.2188 -3.42496 70.4985 -3.9307C69.7783 -4.4091 68.8369 -5.0816 68.4215 -5.39324C68.0061 -5.70215 66.9837 -6.43205 66.1232 -7.02254C65.2924 -7.58569 63.4662 -9.21498 62.0527 -10.6228C60.6689 -12.0553 59.1179 -13.8268 58.6188 -14.5867C58.1225 -15.3741 57.3456 -16.8366 56.8763 -17.8481C56.4312 -18.8623 55.8782 -20.4642 55.657 -21.391C55.4358 -22.3751 55.3522 -23.6982 55.4628 -24.5703C55.6004 -25.7786 55.8512 -26.1723 56.7926 -26.9596C57.4023 -27.4653 58.6755 -28.0831 59.5899 -28.3647C60.6419 -28.6736 62.4142 -28.8431 64.297 -28.8431C66.0423 -28.8431 68.2003 -28.6189 69.3359 -28.3374C70.4149 -28.0558 72.0496 -27.5227 72.964 -27.1564C73.9054 -26.7901 75.4835 -26.0028 76.5085 -25.4123C77.5335 -24.8218 79.1116 -23.8103 79.9963 -23.1925C80.9108 -22.5719 83.8187 -19.8738 86.5053 -17.1728C89.1624 -14.4747 91.6548 -11.8585 92.0163 -11.3528C92.3481 -10.847 93.2598 -10.005 94.0097 -9.49656C94.7569 -8.99082 95.7523 -8.11876 96.2513 -7.52828C96.7504 -6.96786 97.7457 -6.12314 98.4956 -5.70215C99.2698 -5.25109 100.489 -4.4091 101.236 -3.76121C101.983 -3.14339 103.008 -2.41075 103.535 -2.15925C104.034 -1.90501 104.918 -1.62344 105.501 -1.48402C106.081 -1.37194 107.327 -0.893536 108.242 -0.472542C109.404 0.117943 110.707 0.429585 112.644 0.596344C114.141 0.738495 116.272 0.935326 117.351 1.04741C118.791 1.18683 119.76 1.07475 120.842 0.708427C121.672 0.429585 123.056 0.202686 123.887 0.202686C124.966 0.202686 126.102 -0.106224 127.847 -0.893536C129.177 -1.51136 131.003 -2.326 131.861 -2.74973C132.748 -3.14339 133.911 -3.87329 134.464 -4.37903C134.99 -4.85743 135.931 -5.50532 136.514 -5.7869C137.096 -6.06573 138.259 -6.9952 139.09 -7.78251C139.921 -8.59716 141.359 -10.0324 142.273 -10.9591C143.187 -11.9159 144.682 -13.4632 145.542 -14.4173C146.427 -15.3741 147.425 -16.7245 147.784 -17.4544C148.143 -18.1871 148.92 -19.3106 149.473 -20.0132C150.055 -20.6884 150.746 -21.8694 151.024 -22.6294C151.301 -23.3893 151.911 -24.5703 152.38 -25.2428C152.879 -25.918 153.489 -27.2411 153.737 -28.1679C154.015 -29.1247 154.484 -30.3056 154.762 -30.8114C155.067 -31.3171 155.456 -32.3587 155.647 -33.1186C155.871 -33.8759 156.286 -35.0022 156.588 -35.5927C156.893 -36.1831 157.338 -37.5609 157.587 -38.6845C157.835 -39.7807 158.25 -41.2159 158.501 -41.8337C158.806 -42.5664 159 -43.8868 159 -45.3766C159 -46.8392 158.806 -48.3865 158.501 -49.3132C158.14 -50.4094 157.419 -51.4236 156.119 -52.7714C154.762 -54.1492 153.821 -54.8244 152.548 -55.3028C151.412 -55.7238 150.109 -55.9507 148.893 -55.9507C147.841 -55.9507 146.511 -55.7539 145.928 -55.557Z" fill="#B5179E"/>
</g>
</svg>
