<svg width="93" height="85" viewBox="0 0 93 85" fill="none" xmlns="http://www.w3.org/2000/svg">
<path d="M90.5021 36.8403C87.2892 29.0582 81.2836 22.9125 74.7304 17.8069C72.9697 16.4348 71.1824 15.1006 69.3682 13.7994C67.8153 12.687 66.2686 11.5494 64.6716 10.5C61.1047 8.15562 56.8959 6.29744 52.5533 6.3352C50.0988 6.35722 47.8205 7.03221 45.6571 8.16034C44.0145 9.01627 42.4458 10.0138 40.9416 11.0932C37.5746 13.5083 34.4561 16.2555 31.6019 19.2575C28.8815 22.1164 26.4412 25.2113 24.1739 28.4367C23.104 29.9582 22.0671 31.5112 21.2254 33.1727C20.157 35.2794 19.427 37.4161 19.2035 39.7715C18.9864 42.0435 19.5686 44.3926 20.681 46.3703C21.625 48.0507 22.9781 49.5706 24.3973 50.8655C27.1885 53.4097 30.4455 55.3891 33.7528 57.1796C35.1893 57.9569 36.6604 58.6759 38.0812 59.4799C39.3667 60.2068 40.6002 61.0234 41.8463 61.8148C43.2781 62.7227 44.7241 63.6164 46.2314 64.3936C47.83 65.2165 49.5229 65.9828 51.282 66.3871C53.2031 66.8293 55.1274 66.8702 57.0406 66.3572C58.7305 65.9057 60.3637 65.0907 61.8143 64.1199C64.8353 62.0996 67.4267 59.4972 69.7207 56.695C70.8142 55.3607 71.8636 53.9872 72.8533 52.5743C73.8697 51.1252 74.9097 49.6823 75.8491 48.1813C76.7711 46.7102 77.6097 45.0896 77.9952 43.3888C78.453 41.3701 78.3869 39.2476 77.723 37.2792C77.0401 35.248 75.9671 33.3977 74.6659 31.7047C73.3772 30.0259 71.9738 28.4839 70.3532 27.1198C67.1639 24.434 63.5671 22.3241 59.6336 20.9269C55.6907 19.525 51.4016 20.6311 47.97 22.8024C44.8594 24.7691 42.2287 27.4187 39.7474 30.1093C38.2165 31.7708 36.8366 33.5361 36.0845 35.6901C35.3262 37.8583 35.5968 40.3175 36.7643 42.2858C37.8216 44.07 39.406 45.4011 41.0518 46.6142C42.2586 47.5032 43.5487 48.2694 44.8421 49.0215C46.7443 50.1245 48.8432 51.1503 51.0995 51.0984C52.5061 51.0669 53.7821 50.672 55.0346 50.0505C55.933 49.6068 56.7197 48.9806 57.5016 48.3638C58.6723 47.4387 59.7579 46.3798 60.6846 45.2107C62.0441 43.4973 63.1517 41.7131 63.3201 39.4773C63.479 37.3831 62.3792 35.2039 60.7963 33.876C59.3299 32.6456 57.6653 31.8133 55.8323 31.2547C54.2038 30.7606 52.2119 31.8463 51.8295 33.5283C51.4283 35.2857 52.3582 36.9992 54.1031 37.531C54.4068 37.6222 54.7041 37.7292 54.9999 37.8409C55.4578 38.0565 55.8968 38.3035 56.3137 38.5867C56.4506 38.7095 56.5828 38.8353 56.7071 38.9706C56.7401 39.0226 56.7732 39.0776 56.8031 39.1327C56.8094 39.1516 56.8141 39.1705 56.8188 39.1909C56.8188 39.2004 56.8188 39.2098 56.8188 39.2192C56.7952 39.3042 56.7716 39.3876 56.7448 39.4694C56.5057 39.9446 56.2193 40.393 55.9078 40.8241C55.0849 41.8264 54.1519 42.7437 53.1465 43.5618C52.7012 43.8875 52.2355 44.1817 51.7414 44.4288C51.5636 44.4886 51.3858 44.5405 51.2033 44.5814C51.0507 44.5877 50.8997 44.5877 50.7471 44.5814C50.4229 44.509 50.1067 44.4115 49.7951 44.295C48.8055 43.8309 47.8662 43.2582 46.93 42.6965C46.0095 42.1442 45.1064 41.562 44.2442 40.9217C43.6652 40.4465 43.1145 39.9383 42.6267 39.3703C42.4914 39.172 42.3687 38.9691 42.2554 38.7582C42.2271 38.6654 42.2003 38.5726 42.1783 38.4797C42.1736 38.3476 42.1752 38.2154 42.1815 38.0832C42.2287 37.874 42.2869 37.6679 42.3561 37.4633C42.6252 36.9158 42.9509 36.4013 43.3112 35.9088C44.2489 34.7587 45.2999 33.6935 46.3368 32.6377C47.4901 31.4671 48.6906 30.3421 49.9777 29.3194C50.9799 28.5815 52.0372 27.9222 53.1685 27.3999C53.7821 27.1686 54.4115 26.9845 55.0566 26.8633C55.5538 26.8209 56.0494 26.8193 56.5466 26.8586C57.3286 27.0144 58.0775 27.2787 58.8186 27.5761C61.0481 28.5484 63.158 29.7773 65.1043 31.2358C66.6651 32.4851 68.1001 33.8854 69.3493 35.4478C70.0778 36.4328 70.7339 37.4759 71.2532 38.5867C71.4624 39.139 71.6292 39.7038 71.7378 40.2829C71.7645 40.6463 71.7614 41.0098 71.7378 41.3732C71.6386 41.8814 71.4939 42.3771 71.313 42.8617C70.5939 44.4052 69.609 45.8134 68.6382 47.2074C67.7083 48.5448 66.7863 49.8869 65.8013 51.1849C63.8739 53.6394 61.7483 55.9759 59.3 57.9175C58.356 58.6098 57.3616 59.2313 56.3011 59.7238C55.7741 59.922 55.236 60.0809 54.6837 60.1895C54.2888 60.2163 53.8938 60.2115 53.5005 60.1785C52.6178 60.0149 51.7619 59.7427 50.9264 59.4138C48.1258 58.1661 45.5863 56.4181 42.9933 54.799C40.3532 53.1501 37.5148 51.8458 34.8227 50.285C33.287 49.3944 31.786 48.4394 30.3637 47.3742C29.149 46.4065 28.0099 45.3413 27.0265 44.1377C26.6709 43.6421 26.3499 43.1276 26.0809 42.5816C25.9361 42.1788 25.8228 41.7697 25.7394 41.3512C25.7001 40.8383 25.7048 40.3238 25.7505 39.8108C25.9015 38.9927 26.1422 38.1965 26.4412 37.4193C27.135 35.8773 28.0177 34.4282 28.9618 33.0279C29.8743 31.6748 30.8262 30.3437 31.8175 29.0456C35.1389 24.8101 38.9529 20.919 43.1947 17.6023C45.1819 16.0918 47.306 14.6333 49.5764 13.5886C50.2404 13.3337 50.9233 13.1449 51.6234 13.0221C52.3629 12.9592 53.104 12.9655 53.8451 13.0363C54.9937 13.2314 56.1108 13.5587 57.1964 13.9819C59.5093 15.0093 61.5783 16.4175 63.6379 17.8777C65.74 19.3692 67.8357 20.8734 69.8812 22.4421C73.6133 25.3576 77.1566 28.5359 80.102 32.257C81.6722 34.3338 83.071 36.546 84.1236 38.9313C84.6711 40.3222 85.0865 41.7571 85.3256 43.233C85.4421 44.3658 85.4468 45.5003 85.3304 46.6331C85.1416 47.7612 84.8332 48.861 84.4194 49.9278C83.5052 51.9779 82.3629 53.9573 81.2427 55.8957C80.05 57.96 78.785 59.9818 77.4319 61.9439C76.7003 63.0059 75.9403 64.0459 75.1568 65.0686C72.5402 68.3932 69.6184 71.5117 66.3032 74.1471C64.8573 75.2265 63.3122 76.1595 61.6649 76.899C60.2299 77.4639 58.7431 77.8729 57.22 78.1168C55.4232 78.3151 53.6138 78.2899 51.8185 78.0791C48.8967 77.6275 46.0678 76.7291 43.3363 75.6088C39.1196 73.7915 35.1311 71.4975 31.1803 69.1721C29.2292 68.0219 27.2861 66.8592 25.3146 65.7452C23.4643 64.6989 21.5967 63.684 19.7605 62.6125C17.8536 61.5017 15.9828 60.3248 14.2174 58.9984C12.6157 57.7271 11.1336 56.3142 9.85126 54.7204C8.97173 53.5262 8.2102 52.2486 7.59972 50.8986C7.2756 50.0552 7.02386 49.1899 6.86652 48.3009C6.79572 47.5472 6.79572 46.7936 6.86495 46.0384C7.04589 45.0093 7.34483 44.0102 7.72402 43.0363C8.79079 40.6211 10.2147 38.3617 11.6087 36.1259C13.1412 33.6699 14.7445 31.2484 16.4218 28.8867C17.2714 27.6909 18.1462 26.514 19.0383 25.3497C19.8062 24.3726 20.6054 23.416 21.3654 22.4326C23.543 19.7752 25.8244 17.2074 28.0051 14.5515C28.2868 14.2085 28.57 13.8655 28.8548 13.5225C29.2576 13.0347 29.8145 12.5139 30.1166 11.9617C30.9458 10.9217 31.7876 9.88793 32.653 8.87624C33.1313 8.31611 33.6159 7.76227 34.1131 7.21945C34.3396 6.97085 34.5694 6.7254 34.8022 6.4831C34.9139 6.36667 35.0256 6.25338 35.1421 6.14324C35.3356 5.9623 35.4961 5.76563 35.6314 5.55794C36.0358 5.10952 36.4574 4.67683 36.9153 4.28191C36.9562 4.25516 36.9955 4.23156 37.0364 4.20639C37.9648 4.12614 38.7247 3.29696 38.8443 2.40485C38.9843 1.36955 38.3534 0.423936 37.3511 0.117123C36.33 -0.195983 35.2963 0.172193 34.3743 0.59229C33.6442 0.925851 32.9661 1.37112 32.31 1.83056C31.5705 2.22076 30.9175 2.91463 30.3369 3.44329C29.7941 3.93891 29.2623 4.44712 28.7368 4.96162C27.6259 6.04727 26.545 7.16438 25.4751 8.29093L25.7473 8.08167C25.1966 8.53796 24.7498 9.08235 24.2715 9.62203C23.8907 10.0547 23.5099 10.489 23.1292 10.9217C22.5392 11.5935 21.9538 12.2669 21.3544 12.9293C18.9455 15.5915 16.4957 18.1971 14.2174 20.9757C11.5348 24.2499 8.96543 27.6343 6.67456 31.1933C4.48754 34.5903 2.2187 38.0927 0.895469 41.9365C0.262963 43.7758 -0.0800381 45.7929 0.0159391 47.7392C0.140238 50.2614 0.860854 52.5916 1.96695 54.851C3.54507 58.0764 5.94608 60.9243 8.69166 63.223C11.4656 65.5454 14.5195 67.4602 17.66 69.2397C20.703 70.9641 23.7507 72.6697 26.7637 74.4461C30.0191 76.3672 33.2839 78.2836 36.673 79.9608C40.1943 81.7042 43.8744 83.2697 47.712 84.165C51.6643 85.0901 55.6875 85.2962 59.6824 84.5316C64.0124 83.7055 67.8735 81.5311 71.2657 78.7871C74.2505 76.3751 76.9205 73.5886 79.331 70.6086C81.9318 67.3941 84.2919 63.9987 86.405 60.446C87.3821 58.8033 88.3104 57.134 89.1946 55.4394C90.2189 53.479 91.1913 51.465 91.6743 49.2937C92.5995 45.1226 92.1274 40.7769 90.5021 36.8403ZM36.7863 4.37632C36.7611 4.3952 36.7407 4.40936 36.7265 4.41722C36.7485 4.40464 36.7674 4.39048 36.7863 4.37632Z" fill="#B14823"/>
</svg>
